<svg id="Layer_1" data-name="Layer 1" xmlns="http://www.w3.org/2000/svg" viewBox="0 0 1080 1080"><defs><style>.cls-1{fill:#d4af34;}</style></defs><title>Artboard 1</title><path class="cls-1" d="M486.94,717.18a232.78,232.78,0,0,0,30.75-2H455.3a254.05,254.05,0,0,0,31.64,2"/><path class="cls-1" d="M475.77,297.19c-5.82,0-11.49.22-17,.63h33.74c-5.56-.39-11.13-.63-16.7-.63"/><path d="M745.84,533.39Q723,506.82,684.31,498.46q10.7-4.77,14.86-6.87T714,481.14q31.5-23.88,31.51-72.85,0-40.6-27.95-72.85Q702.14,318.12,671.53,308t-72.84-10.15H492.47A258.69,258.69,0,0,1,558,311.13q41.12,14,71.68,39.5L609.85,379q14.24,2.24,22.73,6.64,17.24,9,17.24,36.72T631.1,458.45q-18.74,8.37-57.38,8.36h-44V387.1a163.28,163.28,0,0,0-56.88-10.33q-22.69,0-35.86,10.55V625.81Q463.8,637,488.7,637q25.26,0,39.66-10.75c.47-.35.92-.71,1.36-1.08V540.26h54.7q25.53,0,43.38,2.81,14.6,2.29,24.11,6.44Q673,558.78,673,587.73t-19.92,38.82a85.25,85.25,0,0,1-21.83,6.84q-9.79,28.83-35.34,49.81-31.53,25.86-78.23,32H618.91q85.61,0,120.1-38.81,29.72-33.43,29.72-77,0-39.42-22.89-66"/><path class="cls-1" d="M627.8,543.07q-17.88-2.8-43.38-2.81h-54.7v29.62q13,10.47,13,27.34,0,17.41-13,28c-.44.37-.89.73-1.36,1.08Q513.94,637,488.7,637q-24.88,0-51.72-11.21-34-14.17-71.07-46.3l-54.64,66.22Q368.84,698.4,437,712.22q9.06,1.85,18.32,3h62.39q46.68-6.16,78.23-32,25.58-21,35.34-49.81a120.06,120.06,0,0,0,6.08-38.78q0-29.62-9.54-51.54"/><path class="cls-1" d="M362.09,502.54q25.79,21,74.89,35.84v-96.1q-13.49-10.11-13.5-26.3,0-17.7,13.22-28.46l.28-.2q13.18-10.53,35.86-10.55a163.28,163.28,0,0,1,56.88,10.33q27.21,10,53.57,29.76L609.85,379l19.86-28.33q-30.56-25.54-71.68-39.5a258.69,258.69,0,0,0-65.56-13.31H458.73A201.2,201.2,0,0,0,437,300.55q-37.77,6.9-66.08,28-42,31.37-42,89.17t33.2,84.81"/><rect x="331.65" y="734.53" width="416.66" height="49.14"/><path class="cls-1" d="M362.82,764.6l1.5-3.38a10.25,10.25,0,0,0,5.35,1.6c1.9,0,2.65-.54,2.65-1.33,0-2.57-9.22-.69-9.22-6.71,0-2.9,2.36-5.26,7.18-5.26a12.23,12.23,0,0,1,5.88,1.41l-1.41,3.41a9.5,9.5,0,0,0-4.5-1.25c-1.92,0-2.61.65-2.61,1.46,0,2.48,9.19.62,9.19,6.6,0,2.82-2.36,5.23-7.18,5.23A12.82,12.82,0,0,1,362.82,764.6Z"/><path class="cls-1" d="M377.94,759.76c0-3.78,3-6.46,7.09-6.46s7.09,2.68,7.09,6.46-2.94,6.51-7.09,6.51S377.94,763.56,377.94,759.76Zm9.73,0c0-1.9-1.13-3-2.64-3a2.66,2.66,0,0,0-2.64,3c0,1.92,1.16,3,2.64,3S387.67,761.68,387.67,759.76Z"/><path class="cls-1" d="M402.56,753.3v4a7.29,7.29,0,0,0-1-.07c-1.79,0-3,.9-3,3.1v5.77h-4.4V753.5h4.19V755A5.11,5.11,0,0,1,402.56,753.3Z"/><path class="cls-1" d="M413.4,765.55a6,6,0,0,1-3,.72c-3.22,0-5.1-1.58-5.1-4.8v-4.21h-1.83V754h1.83V750.7h4.4V754h2.87v3.29h-2.87v4.17a1.27,1.27,0,0,0,1.32,1.43,2.48,2.48,0,0,0,1.35-.39Z"/><path class="cls-1" d="M414.61,749.78a2.42,2.42,0,0,1,2.68-2.34c1.63,0,2.69.95,2.69,2.27a2.71,2.71,0,0,1-5.37.07Zm.48,3.72h4.4v12.56h-4.4Z"/><path class="cls-1" d="M435.71,758.88v7.18h-4.4V759.6c0-1.81-.79-2.57-2.06-2.57-1.42,0-2.51.87-2.51,3v6.07h-4.4V753.5h4.2v1.37a5.37,5.37,0,0,1,4-1.57C433.46,753.3,435.71,755,435.71,758.88Z"/><path class="cls-1" d="M452.13,753.5v10.27c0,4.74-2.69,7-7.37,7a11.12,11.12,0,0,1-6.23-1.64l1.6-3.09a7.24,7.24,0,0,0,4.24,1.35c2.36,0,3.36-1.07,3.36-3v-.41a4.71,4.71,0,0,1-3.73,1.48,6.06,6.06,0,1,1,0-12.11,4.56,4.56,0,0,1,3.94,1.73V753.5Zm-4.35,5.84a2.75,2.75,0,0,0-5.49,0,2.75,2.75,0,0,0,5.49,0Z"/><path class="cls-1" d="M470.59,760.24v5.82H466v-5.89l-6.18-10.33h4.84l3.85,6.44,3.84-6.44h4.45Z"/><path class="cls-1" d="M475.57,759.76c0-3.78,3-6.46,7.09-6.46s7.08,2.68,7.08,6.46-2.94,6.51-7.08,6.51S475.57,763.56,475.57,759.76Zm9.73,0c0-1.9-1.14-3-2.64-3a2.65,2.65,0,0,0-2.64,3c0,1.92,1.15,3,2.64,3S485.3,761.68,485.3,759.76Z"/><path class="cls-1" d="M505,753.5v12.56h-4.2v-1.35a4.92,4.92,0,0,1-3.73,1.56c-3.08,0-5.32-1.76-5.32-5.75v-7h4.4v6.3c0,2,.76,2.71,2.08,2.71s2.36-.85,2.36-3v-6Z"/><path class="cls-1" d="M516.22,753.3v4a7.43,7.43,0,0,0-1-.07c-1.78,0-3,.9-3,3.1v5.77h-4.4V753.5H512V755A5.13,5.13,0,0,1,516.22,753.3Z"/><path class="cls-1" d="M540.45,761.61c0,2.8-2.32,4.45-6.68,4.45H525V749.84h8.29c4.26,0,6.35,1.74,6.35,4.24a3.81,3.81,0,0,1-2.18,3.52A4.1,4.1,0,0,1,540.45,761.61Zm-10.89-8.45v3.12h3.15c1.53,0,2.32-.53,2.32-1.57s-.79-1.55-2.32-1.55Zm6.25,7.94c0-1.11-.83-1.64-2.41-1.64h-3.84v3.29h3.84C535,762.75,535.81,762.21,535.81,761.1Z"/><path class="cls-1" d="M555.82,753.5v12.56h-4.19v-1.35a4.92,4.92,0,0,1-3.73,1.56c-3.08,0-5.33-1.76-5.33-5.75v-7H547v6.3c0,2,.76,2.71,2.08,2.71s2.36-.85,2.36-3v-6Z"/><path class="cls-1" d="M557.65,765l1.32-3a8.8,8.8,0,0,0,4.38,1.16c1.48,0,2-.33,2-.86,0-1.69-7.41.23-7.41-4.8,0-2.36,2.18-4.16,6.11-4.16a11.09,11.09,0,0,1,5,1.06l-1.32,3a7.3,7.3,0,0,0-3.61-.93c-1.49,0-2,.42-2,.88,0,1.74,7.39-.14,7.39,4.84,0,2.32-2.13,4.13-6.21,4.13A11.58,11.58,0,0,1,557.65,765Z"/><path class="cls-1" d="M570.83,749.78a2.43,2.43,0,0,1,2.69-2.34c1.62,0,2.69.95,2.69,2.27a2.71,2.71,0,0,1-5.38.07Zm.49,3.72h4.4v12.56h-4.4Z"/><path class="cls-1" d="M591.93,758.88v7.18h-4.4V759.6c0-1.81-.78-2.57-2.06-2.57s-2.5.87-2.5,3v6.07h-4.4V753.5h4.19v1.37a5.41,5.41,0,0,1,4-1.57C589.69,753.3,591.93,755,591.93,758.88Z"/><path class="cls-1" d="M607.61,760.89h-9.12a2.9,2.9,0,0,0,3.08,2,4,4,0,0,0,2.89-1.09l2.32,2.41a6.79,6.79,0,0,1-5.35,2c-4.47,0-7.37-2.76-7.37-6.51s3-6.46,6.91-6.46c3.7,0,6.71,2.36,6.71,6.5C607.68,760.13,607.64,760.55,607.61,760.89Zm-9.19-2.31h5.14a2.61,2.61,0,0,0-5.14,0Z"/><path class="cls-1" d="M608.73,765l1.32-3a8.76,8.76,0,0,0,4.37,1.16c1.49,0,2-.33,2-.86,0-1.69-7.41.23-7.41-4.8,0-2.36,2.18-4.16,6.12-4.16a11,11,0,0,1,4.95,1.06l-1.32,3a7.3,7.3,0,0,0-3.61-.93c-1.48,0-2,.42-2,.88,0,1.74,7.39-.14,7.39,4.84,0,2.32-2.13,4.13-6.21,4.13A11.51,11.51,0,0,1,608.73,765Z"/><path class="cls-1" d="M621.4,765l1.32-3a8.73,8.73,0,0,0,4.37,1.16c1.49,0,2-.33,2-.86,0-1.69-7.41.23-7.41-4.8,0-2.36,2.18-4.16,6.12-4.16a11,11,0,0,1,5,1.06l-1.32,3a7.3,7.3,0,0,0-3.61-.93c-1.48,0-2,.42-2,.88,0,1.74,7.39-.14,7.39,4.84,0,2.32-2.13,4.13-6.21,4.13A11.51,11.51,0,0,1,621.4,765Z"/><path class="cls-1" d="M657.44,749.84v16.22h-3.78l-7.16-8.64v8.64H642V749.84h3.77l7.16,8.64v-8.64Z"/><path class="cls-1" d="M673.23,760.89h-9.12a2.9,2.9,0,0,0,3.08,2,4,4,0,0,0,2.89-1.09l2.32,2.41a6.82,6.82,0,0,1-5.35,2c-4.47,0-7.37-2.76-7.37-6.51s2.94-6.46,6.9-6.46c3.71,0,6.72,2.36,6.72,6.5C673.3,760.13,673.26,760.55,673.23,760.89ZM664,758.58h5.14a2.61,2.61,0,0,0-5.14,0Z"/><path class="cls-1" d="M688.1,760.89H679a2.9,2.9,0,0,0,3.08,2,4,4,0,0,0,2.89-1.09l2.32,2.41a6.82,6.82,0,0,1-5.35,2c-4.47,0-7.37-2.76-7.37-6.51s2.94-6.46,6.9-6.46c3.71,0,6.72,2.36,6.72,6.5C688.17,760.13,688.13,760.55,688.1,760.89Zm-9.19-2.31h5.14a2.61,2.61,0,0,0-5.14,0Z"/><path class="cls-1" d="M703.55,748.87v17.19h-4.19v-1.25a4.52,4.52,0,0,1-3.68,1.46c-3.43,0-6.19-2.5-6.19-6.51a6.07,6.07,0,0,1,6.19-6.46,4.56,4.56,0,0,1,3.47,1.29v-5.72Zm-4.33,10.89c0-1.9-1.14-3-2.62-3s-2.64,1.07-2.64,3,1.14,3,2.64,3S699.22,761.68,699.22,759.76Z"/><path class="cls-1" d="M705.38,765l1.32-3a8.8,8.8,0,0,0,4.38,1.16c1.48,0,2-.33,2-.86,0-1.69-7.41.23-7.41-4.8,0-2.36,2.17-4.16,6.11-4.16a11.09,11.09,0,0,1,5,1.06l-1.32,3a7.31,7.31,0,0,0-3.62-.93c-1.48,0-2,.42-2,.88,0,1.74,7.39-.14,7.39,4.84,0,2.32-2.13,4.13-6.21,4.13A11.58,11.58,0,0,1,705.38,765Z"/></svg>